<?xml version="1.0" encoding="UTF-8"?>
<!DOCTYPE svg PUBLIC "-//W3C//DTD SVG 1.1//EN" "http://www.w3.org/Graphics/SVG/1.1/DTD/svg11.dtd">
<!-- Creator: CorelDRAW X6 -->
<svg xmlns="http://www.w3.org/2000/svg" xml:space="preserve" width="35.0421mm" height="34.5247mm" version="1.1" style="shape-rendering:geometricPrecision; text-rendering:geometricPrecision; image-rendering:optimizeQuality; fill-rule:evenodd; clip-rule:evenodd"
viewBox="0 0 259 255"
 xmlns:xlink="http://www.w3.org/1999/xlink">
 <defs>
  <style type="text/css">
   <![CDATA[
    .fil1 {fill:#959596}
    .fil0 {fill:#A5A5A5}
    .fil2 {fill:#6F7171;fill-rule:nonzero}
    .fil3 {fill:#A5A5A5;fill-rule:nonzero}
   ]]>
  </style>
 </defs>
 <g id="图层_x0020_1">
  <metadata id="CorelCorpID_0Corel-Layer"/>
  <path class="fil0" d="M105 223c13,4 28,4 43,2 54,-9 90,-60 82,-114 -2,-12 -6,-24 -12,-34 -7,0 -14,0 -22,1 -62,10 -104,68 -94,130 1,5 1,10 3,14z"/>
  <path class="fil1" d="M154 223c-13,4 -28,4 -43,2 -54,-9 -90,-60 -82,-114 2,-12 6,-24 12,-34 7,0 14,0 22,1 27,4 50,18 66,36l0 87 28 0c0,2 -1,5 -1,7 -1,5 -1,10 -3,14z"/>
  <path class="fil0" d="M129 32c27,0 51,15 63,38 -2,0 -4,0 -6,1 -23,4 -42,15 -57,31l0 0 0 0c-14,-16 -34,-27 -57,-31 -2,0 -4,-1 -6,-1 12,-22 35,-38 63,-38z"/>
  <path class="fil2" d="M129 116c7,30 24,51 35,68 7,11 10,23 9,34l0 0c-8,4 -17,6 -26,8 -6,1 -12,1 -18,1l0 0 -1 0 0 0c-6,0 -12,-1 -18,-1 -9,-2 -18,-4 -26,-8 0,4 1,8 3,11 -5,-12 -3,-27 5,-41 10,-18 29,-39 37,-72zm-34 125c-1,-1 -1,-1 -2,-2 0,1 1,1 2,2zm-2 -3c0,0 -1,-1 -1,-1 0,0 1,1 1,1zm-1 -1c-1,-1 -1,-2 -1,-2 0,1 1,2 1,2zm-2 -3c0,-1 -1,-2 -1,-2 0,1 1,2 1,2zm-1 -2c0,-1 -1,-2 -1,-3 0,1 1,2 1,3z"/>
  <path class="fil3" d="M173 217c-2,21 -17,37 -44,37 -26,0 -42,-17 -44,-38 8,4 17,6 26,8 6,1 12,1 18,1l0 0 1 0 0 0c6,0 12,-1 18,-1 9,-1 18,-4 26,-8z"/>
  <path class="fil1" d="M129 0c71,0 129,58 129,129 0,56 -35,103 -84,121 5,-6 9,-12 11,-20 36,-20 60,-58 60,-102 0,-64 -52,-116 -116,-116 -64,0 -116,52 -116,116 0,44 24,82 60,102 2,8 6,14 12,20 -50,-18 -85,-66 -85,-122 0,-71 58,-129 129,-129z"/>
 </g>
</svg>
