<?xml version="1.0" encoding="UTF-8"?>
<!DOCTYPE svg PUBLIC "-//W3C//DTD SVG 1.1//EN" "http://www.w3.org/Graphics/SVG/1.1/DTD/svg11.dtd">
<!-- Creator: CorelDRAW X6 -->
<svg xmlns="http://www.w3.org/2000/svg" xml:space="preserve" width="71.7198mm" height="8.8957mm" version="1.1" style="shape-rendering:geometricPrecision; text-rendering:geometricPrecision; image-rendering:optimizeQuality; fill-rule:evenodd; clip-rule:evenodd"
viewBox="0 0 3520 437"
 xmlns:xlink="http://www.w3.org/1999/xlink">
 <defs>
  <style type="text/css">
   <![CDATA[
    .fil0 {fill:#52B1D9;fill-rule:nonzero}
   ]]>
  </style>
 </defs>
 <g id="图层_x0020_1">
  <metadata id="CorelCorpID_0Corel-Layer"/>
  <polygon class="fil0" points="299,368 0,368 0,321 234,46 0,46 0,0 299,0 299,46 64,322 299,322 "/>
  <polygon class="fil0" points="614,92 372,437 312,437 361,367 361,92 407,92 407,303 554,92 "/>
  <path class="fil0" d="M881 368l-45 0 0 -33c-27,25 -60,38 -97,38 -39,0 -73,-14 -101,-42 -28,-28 -42,-61 -42,-101 0,-39 14,-73 42,-101 28,-28 61,-42 101,-42 39,0 73,14 101,42 28,28 42,61 42,101l0 138zm-45 -138l0 0c0,-27 -9,-49 -28,-68 -19,-19 -42,-28 -69,-28 -27,0 -50,9 -69,28 -19,19 -28,42 -28,68 0,27 9,49 28,68 19,19 42,28 69,28 27,0 50,-9 69,-28 19,-19 28,-42 28,-68z"/>
  <path class="fil0" d="M1169 368l-45 0 0 -156c0,-21 -8,-40 -23,-55 -15,-15 -34,-23 -55,-23 -22,0 -40,8 -55,23 -15,15 -23,34 -23,55l0 156 -46 0 0 -156c0,-34 12,-64 36,-88 24,-24 53,-36 88,-36 34,0 64,12 88,36 24,24 36,53 36,88l0 156z"/>
  <polygon class="fil0" points="1647,368 1349,368 1349,321 1583,46 1349,46 1349,0 1647,0 1647,46 1413,322 1647,322 "/>
  <path class="fil0" d="M1930 248c0,34 -12,64 -36,88 -24,24 -53,36 -88,36 -34,0 -64,-12 -88,-36 -24,-24 -36,-53 -36,-88l0 -156 46 0 0 156c0,21 8,40 23,55 15,15 34,23 55,23 22,0 40,-8 55,-23 15,-15 23,-34 23,-55l0 -156 45 0 0 156z"/>
  <polygon class="fil0" points="2096,138 2050,138 2050,368 2005,368 2005,138 1959,138 1959,92 2005,92 2005,0 2050,0 2050,92 2096,92 "/>
  <polygon class="fil0" points="2247,138 2201,138 2201,368 2155,368 2155,138 2109,138 2109,92 2155,92 2155,0 2201,0 2201,92 2247,92 "/>
  <path class="fil0" d="M2547 230c0,39 -14,73 -42,101 -28,28 -61,42 -101,42 -39,0 -73,-14 -101,-42 -28,-28 -42,-61 -42,-101 0,-39 14,-73 42,-101 28,-28 61,-42 101,-42 39,0 73,14 101,42 6,6 11,12 15,17l-166 166c15,9 32,14 50,14 26,0 49,-9 68,-28 19,-19 29,-42 29,-68 0,-9 -2,-18 -5,-28l35 -35c10,20 15,41 15,63zm-93 -83l0 0c-15,-9 -32,-14 -50,-14 -26,0 -49,9 -68,28 -19,19 -29,42 -29,68 0,18 5,35 14,50l133 -133z"/>
  <path class="fil0" d="M2710 133c-22,0 -40,8 -55,23 -15,15 -23,34 -23,55l0 156 -45 0 0 -156c0,-34 12,-64 36,-88 24,-24 53,-36 88,-36l0 46z"/>
  <polygon class="fil0" points="2913,368 2867,368 2867,0 2913,0 "/>
  <path class="fil0" d="M3205 368l-45 0 0 -156c0,-21 -8,-40 -23,-55 -15,-15 -34,-23 -55,-23 -22,0 -40,8 -55,23 -15,15 -23,34 -23,55l0 156 -45 0 0 -156c0,-34 12,-64 36,-88 24,-24 53,-36 88,-36 34,0 64,12 88,36 24,24 36,53 36,88l0 156z"/>
  <path class="fil0" d="M3520 230c0,39 -14,73 -42,101 -28,28 -62,42 -101,42 -39,0 -73,-14 -100,-42 -28,-28 -42,-61 -42,-101 0,-40 14,-73 42,-101 28,-28 61,-42 100,-42 22,0 43,5 63,15l-35 35c-9,-3 -18,-4 -28,-4 -26,0 -49,9 -68,28 -19,19 -28,42 -28,68 0,27 9,50 28,68 19,19 42,28 68,28 27,0 50,-9 69,-28 19,-19 28,-42 28,-68 0,-9 -2,-18 -5,-28l35 -35c10,20 15,41 15,63z"/>
 </g>
</svg>
